<mxfile modified="2024-02-07T02:13:35.798Z" host="app.diagrams.net" agent="Mozilla/5.0 (Windows NT 10.0; Win64; x64) AppleWebKit/537.36 (KHTML, like Gecko) Chrome/121.0.0.0 Safari/537.36 Edg/121.0.0.0" etag="AQ94dzYcJCHginHTao_N" version="23.1.1" type="github">
  <diagram id="hOmpC_3qpGD7bDlE_Dh1" name="Page-2">
    <mxGraphModel dx="1426" dy="793" grid="1" gridSize="10" guides="1" tooltips="1" connect="1" arrows="1" fold="1" page="1" pageScale="1" pageWidth="1169" pageHeight="827" math="0" shadow="0">
      <root>
        <mxCell id="0" />
        <mxCell id="1" parent="0" />
        <mxCell id="9f5_5LGFeZ3fVuOj17HK-6" value="" style="rounded=0;whiteSpace=wrap;html=1;dashed=1;strokeColor=default;align=center;verticalAlign=middle;fontFamily=Helvetica;fontSize=12;fontColor=default;fillColor=default;gradientColor=none;" parent="1" vertex="1">
          <mxGeometry x="40" y="40" width="1090" height="760" as="geometry" />
        </mxCell>
        <mxCell id="9f5_5LGFeZ3fVuOj17HK-7" value="" style="rounded=0;whiteSpace=wrap;html=1;strokeColor=default;align=center;verticalAlign=middle;fontFamily=Helvetica;fontSize=12;fontColor=default;fillColor=default;gradientColor=none;strokeWidth=2;" parent="1" vertex="1">
          <mxGeometry x="70" y="100" width="110" height="430" as="geometry" />
        </mxCell>
        <mxCell id="9f5_5LGFeZ3fVuOj17HK-8" value="" style="rounded=0;whiteSpace=wrap;html=1;dashed=1;strokeColor=default;align=center;verticalAlign=middle;fontFamily=Helvetica;fontSize=12;fontColor=default;fillColor=default;gradientColor=none;" parent="1" vertex="1">
          <mxGeometry x="200" y="65" width="800" height="590" as="geometry" />
        </mxCell>
        <mxCell id="9f5_5LGFeZ3fVuOj17HK-9" value="" style="rounded=0;whiteSpace=wrap;html=1;strokeColor=default;align=center;verticalAlign=middle;fontFamily=Helvetica;fontSize=12;fontColor=default;fillColor=default;gradientColor=none;strokeWidth=2;" parent="1" vertex="1">
          <mxGeometry x="220" y="100" width="550" height="420" as="geometry" />
        </mxCell>
        <mxCell id="9f5_5LGFeZ3fVuOj17HK-10" value="" style="rounded=0;whiteSpace=wrap;html=1;strokeColor=default;align=center;verticalAlign=middle;fontFamily=Helvetica;fontSize=12;fontColor=default;fillColor=default;gradientColor=none;strokeWidth=2;" parent="1" vertex="1">
          <mxGeometry x="820" y="100" width="160" height="240" as="geometry" />
        </mxCell>
        <mxCell id="9f5_5LGFeZ3fVuOj17HK-13" value="Entity" style="rounded=1;whiteSpace=wrap;html=1;strokeColor=default;align=center;verticalAlign=middle;fontFamily=Helvetica;fontSize=12;fontColor=default;fillColor=default;gradientColor=none;" parent="1" vertex="1">
          <mxGeometry x="230" y="250" width="110" height="30" as="geometry" />
        </mxCell>
        <mxCell id="9f5_5LGFeZ3fVuOj17HK-14" value="Entity" style="rounded=1;whiteSpace=wrap;html=1;strokeColor=default;align=center;verticalAlign=middle;fontFamily=Helvetica;fontSize=12;fontColor=default;fillColor=default;gradientColor=none;" parent="1" vertex="1">
          <mxGeometry x="350" y="250" width="110" height="30" as="geometry" />
        </mxCell>
        <mxCell id="9f5_5LGFeZ3fVuOj17HK-15" value="Entity" style="rounded=1;whiteSpace=wrap;html=1;strokeColor=default;align=center;verticalAlign=middle;fontFamily=Helvetica;fontSize=12;fontColor=default;fillColor=default;gradientColor=none;" parent="1" vertex="1">
          <mxGeometry x="230" y="330" width="110" height="30" as="geometry" />
        </mxCell>
        <mxCell id="9f5_5LGFeZ3fVuOj17HK-16" value="Custom" style="rounded=1;whiteSpace=wrap;html=1;strokeColor=default;align=center;verticalAlign=middle;fontFamily=Helvetica;fontSize=12;fontColor=default;fillColor=default;gradientColor=none;" parent="1" vertex="1">
          <mxGeometry x="350" y="330" width="110" height="30" as="geometry" />
        </mxCell>
        <mxCell id="9f5_5LGFeZ3fVuOj17HK-17" value="Entity" style="rounded=1;whiteSpace=wrap;html=1;strokeColor=default;align=center;verticalAlign=middle;fontFamily=Helvetica;fontSize=12;fontColor=default;fillColor=default;gradientColor=none;" parent="1" vertex="1">
          <mxGeometry x="230" y="290" width="110" height="30" as="geometry" />
        </mxCell>
        <mxCell id="9f5_5LGFeZ3fVuOj17HK-18" value="Entity" style="rounded=1;whiteSpace=wrap;html=1;strokeColor=default;align=center;verticalAlign=middle;fontFamily=Helvetica;fontSize=12;fontColor=default;fillColor=default;gradientColor=none;" parent="1" vertex="1">
          <mxGeometry x="350" y="290" width="110" height="30" as="geometry" />
        </mxCell>
        <mxCell id="9f5_5LGFeZ3fVuOj17HK-19" value="Entity" style="rounded=1;whiteSpace=wrap;html=1;strokeColor=default;align=center;verticalAlign=middle;fontFamily=Helvetica;fontSize=12;fontColor=default;fillColor=default;gradientColor=none;" parent="1" vertex="1">
          <mxGeometry x="230" y="370" width="110" height="30" as="geometry" />
        </mxCell>
        <mxCell id="9f5_5LGFeZ3fVuOj17HK-20" value="Custom" style="rounded=1;whiteSpace=wrap;html=1;strokeColor=default;align=center;verticalAlign=middle;fontFamily=Helvetica;fontSize=12;fontColor=default;fillColor=default;gradientColor=none;" parent="1" vertex="1">
          <mxGeometry x="350" y="370" width="110" height="30" as="geometry" />
        </mxCell>
        <mxCell id="9f5_5LGFeZ3fVuOj17HK-23" value="User Topic" style="rounded=1;whiteSpace=wrap;html=1;strokeColor=default;align=center;verticalAlign=middle;fontFamily=Helvetica;fontSize=12;fontColor=default;fillColor=default;gradientColor=none;" parent="1" vertex="1">
          <mxGeometry x="550" y="155" width="200" height="40" as="geometry" />
        </mxCell>
        <mxCell id="9f5_5LGFeZ3fVuOj17HK-25" value="User Topic" style="rounded=1;whiteSpace=wrap;html=1;strokeColor=default;align=center;verticalAlign=middle;fontFamily=Helvetica;fontSize=12;fontColor=default;fillColor=default;gradientColor=none;" parent="1" vertex="1">
          <mxGeometry x="550" y="305" width="200" height="40" as="geometry" />
        </mxCell>
        <mxCell id="9f5_5LGFeZ3fVuOj17HK-26" value="User Topic" style="rounded=1;whiteSpace=wrap;html=1;strokeColor=default;align=center;verticalAlign=middle;fontFamily=Helvetica;fontSize=12;fontColor=default;fillColor=default;gradientColor=none;" parent="1" vertex="1">
          <mxGeometry x="550" y="255" width="200" height="40" as="geometry" />
        </mxCell>
        <mxCell id="9f5_5LGFeZ3fVuOj17HK-27" value="User Topic" style="rounded=1;whiteSpace=wrap;html=1;strokeColor=default;align=center;verticalAlign=middle;fontFamily=Helvetica;fontSize=12;fontColor=default;fillColor=default;gradientColor=none;" parent="1" vertex="1">
          <mxGeometry x="550" y="205" width="200" height="40" as="geometry" />
        </mxCell>
        <mxCell id="9f5_5LGFeZ3fVuOj17HK-28" value="System Topic" style="rounded=1;whiteSpace=wrap;html=1;strokeColor=default;align=center;verticalAlign=middle;fontFamily=Helvetica;fontSize=12;fontColor=default;fillColor=default;gradientColor=none;" parent="1" vertex="1">
          <mxGeometry x="550" y="355" width="200" height="40" as="geometry" />
        </mxCell>
        <mxCell id="9f5_5LGFeZ3fVuOj17HK-29" value="System Topic" style="rounded=1;whiteSpace=wrap;html=1;strokeColor=default;align=center;verticalAlign=middle;fontFamily=Helvetica;fontSize=12;fontColor=default;fillColor=default;gradientColor=none;" parent="1" vertex="1">
          <mxGeometry x="550" y="405" width="200" height="40" as="geometry" />
        </mxCell>
        <mxCell id="9f5_5LGFeZ3fVuOj17HK-30" value="Escalate" style="rounded=1;whiteSpace=wrap;html=1;strokeColor=default;align=center;verticalAlign=middle;fontFamily=Helvetica;fontSize=12;fontColor=default;fillColor=default;gradientColor=none;" parent="1" vertex="1">
          <mxGeometry x="550" y="455" width="200" height="40" as="geometry" />
        </mxCell>
        <mxCell id="9f5_5LGFeZ3fVuOj17HK-35" value="" style="endArrow=classic;html=1;rounded=0;fontFamily=Helvetica;fontSize=12;fontColor=default;entryX=0;entryY=0.5;entryDx=0;entryDy=0;exitX=1;exitY=0.5;exitDx=0;exitDy=0;" parent="1" source="9f5_5LGFeZ3fVuOj17HK-16" target="9f5_5LGFeZ3fVuOj17HK-27" edge="1">
          <mxGeometry width="50" height="50" relative="1" as="geometry">
            <mxPoint x="440" y="470" as="sourcePoint" />
            <mxPoint x="490" y="420" as="targetPoint" />
          </mxGeometry>
        </mxCell>
        <mxCell id="9f5_5LGFeZ3fVuOj17HK-36" value="" style="endArrow=classic;html=1;rounded=0;fontFamily=Helvetica;fontSize=12;fontColor=default;entryX=0;entryY=0.5;entryDx=0;entryDy=0;exitX=1;exitY=0.5;exitDx=0;exitDy=0;" parent="1" source="9f5_5LGFeZ3fVuOj17HK-16" target="9f5_5LGFeZ3fVuOj17HK-29" edge="1">
          <mxGeometry width="50" height="50" relative="1" as="geometry">
            <mxPoint x="470" y="355" as="sourcePoint" />
            <mxPoint x="560" y="230" as="targetPoint" />
          </mxGeometry>
        </mxCell>
        <mxCell id="9f5_5LGFeZ3fVuOj17HK-37" value="" style="endArrow=classic;html=1;rounded=0;fontFamily=Helvetica;fontSize=12;fontColor=default;entryX=0;entryY=0.5;entryDx=0;entryDy=0;exitX=1;exitY=0.5;exitDx=0;exitDy=0;" parent="1" source="9f5_5LGFeZ3fVuOj17HK-16" target="9f5_5LGFeZ3fVuOj17HK-25" edge="1">
          <mxGeometry width="50" height="50" relative="1" as="geometry">
            <mxPoint x="470" y="355" as="sourcePoint" />
            <mxPoint x="560" y="230" as="targetPoint" />
          </mxGeometry>
        </mxCell>
        <mxCell id="9f5_5LGFeZ3fVuOj17HK-38" value="" style="endArrow=classic;html=1;rounded=0;fontFamily=Helvetica;fontSize=12;fontColor=default;entryX=0;entryY=0.5;entryDx=0;entryDy=0;exitX=1;exitY=0.5;exitDx=0;exitDy=0;dashed=1;" parent="1" source="9f5_5LGFeZ3fVuOj17HK-14" target="9f5_5LGFeZ3fVuOj17HK-26" edge="1">
          <mxGeometry width="50" height="50" relative="1" as="geometry">
            <mxPoint x="470" y="355" as="sourcePoint" />
            <mxPoint x="560" y="230" as="targetPoint" />
          </mxGeometry>
        </mxCell>
        <mxCell id="9f5_5LGFeZ3fVuOj17HK-39" value="" style="endArrow=classic;html=1;rounded=0;fontFamily=Helvetica;fontSize=12;fontColor=default;entryX=0;entryY=0.5;entryDx=0;entryDy=0;exitX=1;exitY=0.5;exitDx=0;exitDy=0;dashed=1;" parent="1" source="9f5_5LGFeZ3fVuOj17HK-14" target="9f5_5LGFeZ3fVuOj17HK-28" edge="1">
          <mxGeometry width="50" height="50" relative="1" as="geometry">
            <mxPoint x="470" y="275" as="sourcePoint" />
            <mxPoint x="560" y="285" as="targetPoint" />
          </mxGeometry>
        </mxCell>
        <mxCell id="jqtK98orMPLJmdBe8KaK-1" value="Channels" style="text;html=1;strokeColor=none;fillColor=none;align=center;verticalAlign=middle;whiteSpace=wrap;rounded=0;fontSize=14;" vertex="1" parent="1">
          <mxGeometry x="70" y="110" width="110" height="30" as="geometry" />
        </mxCell>
        <mxCell id="jqtK98orMPLJmdBe8KaK-2" value="Flow" style="rounded=1;whiteSpace=wrap;html=1;strokeColor=default;align=center;verticalAlign=middle;fontFamily=Helvetica;fontSize=12;fontColor=default;fillColor=default;gradientColor=none;" vertex="1" parent="1">
          <mxGeometry x="830" y="190" width="90" height="30" as="geometry" />
        </mxCell>
        <mxCell id="jqtK98orMPLJmdBe8KaK-3" value="Connectors" style="rounded=1;whiteSpace=wrap;html=1;strokeColor=default;align=center;verticalAlign=middle;fontFamily=Helvetica;fontSize=12;fontColor=default;fillColor=default;gradientColor=none;direction=south;horizontal=0;" vertex="1" parent="1">
          <mxGeometry x="930" y="190" width="40" height="135" as="geometry" />
        </mxCell>
        <mxCell id="jqtK98orMPLJmdBe8KaK-5" value="Flow" style="rounded=1;whiteSpace=wrap;html=1;strokeColor=default;align=center;verticalAlign=middle;fontFamily=Helvetica;fontSize=12;fontColor=default;fillColor=default;gradientColor=none;" vertex="1" parent="1">
          <mxGeometry x="830" y="225" width="90" height="30" as="geometry" />
        </mxCell>
        <mxCell id="jqtK98orMPLJmdBe8KaK-6" value="Flow" style="rounded=1;whiteSpace=wrap;html=1;strokeColor=default;align=center;verticalAlign=middle;fontFamily=Helvetica;fontSize=12;fontColor=default;fillColor=default;gradientColor=none;" vertex="1" parent="1">
          <mxGeometry x="830" y="260" width="90" height="30" as="geometry" />
        </mxCell>
        <mxCell id="jqtK98orMPLJmdBe8KaK-7" value="Flow" style="rounded=1;whiteSpace=wrap;html=1;strokeColor=default;align=center;verticalAlign=middle;fontFamily=Helvetica;fontSize=12;fontColor=default;fillColor=default;gradientColor=none;" vertex="1" parent="1">
          <mxGeometry x="830" y="295" width="90" height="30" as="geometry" />
        </mxCell>
        <mxCell id="jqtK98orMPLJmdBe8KaK-9" value="" style="shape=image;html=1;verticalAlign=top;verticalLabelPosition=bottom;labelBackgroundColor=#ffffff;imageAspect=0;aspect=fixed;image=https://cdn0.iconfinder.com/data/icons/logos-microsoft-office-365/128/Microsoft_Office-10-128.png" vertex="1" parent="1">
          <mxGeometry x="90" y="275" width="60" height="60" as="geometry" />
        </mxCell>
        <mxCell id="jqtK98orMPLJmdBe8KaK-10" value="" style="image;aspect=fixed;html=1;points=[];align=center;fontSize=12;image=img/lib/azure2/preview/Static_Apps.svg;" vertex="1" parent="1">
          <mxGeometry x="90" y="157" width="60" height="48" as="geometry" />
        </mxCell>
        <mxCell id="jqtK98orMPLJmdBe8KaK-11" value="" style="verticalLabelPosition=bottom;aspect=fixed;html=1;shape=mxgraph.salesforce.apps;" vertex="1" parent="1">
          <mxGeometry x="102.9" y="400" width="34.199999999999996" height="60" as="geometry" />
        </mxCell>
        <mxCell id="jqtK98orMPLJmdBe8KaK-13" value="Web" style="text;html=1;strokeColor=none;fillColor=none;align=center;verticalAlign=middle;whiteSpace=wrap;rounded=0;" vertex="1" parent="1">
          <mxGeometry x="90" y="205" width="60" height="30" as="geometry" />
        </mxCell>
        <mxCell id="jqtK98orMPLJmdBe8KaK-14" value="Teams" style="text;html=1;strokeColor=none;fillColor=none;align=center;verticalAlign=middle;whiteSpace=wrap;rounded=0;" vertex="1" parent="1">
          <mxGeometry x="90" y="330" width="60" height="30" as="geometry" />
        </mxCell>
        <mxCell id="jqtK98orMPLJmdBe8KaK-15" value="App" style="text;html=1;strokeColor=none;fillColor=none;align=center;verticalAlign=middle;whiteSpace=wrap;rounded=0;" vertex="1" parent="1">
          <mxGeometry x="90" y="460" width="60" height="30" as="geometry" />
        </mxCell>
        <mxCell id="jqtK98orMPLJmdBe8KaK-16" value="" style="endArrow=classic;html=1;rounded=0;fontFamily=Helvetica;fontSize=12;fontColor=default;" edge="1" parent="1">
          <mxGeometry width="50" height="50" relative="1" as="geometry">
            <mxPoint x="220" y="310" as="sourcePoint" />
            <mxPoint x="160" y="190" as="targetPoint" />
          </mxGeometry>
        </mxCell>
        <mxCell id="jqtK98orMPLJmdBe8KaK-17" value="" style="endArrow=classic;html=1;rounded=0;fontFamily=Helvetica;fontSize=12;fontColor=default;exitX=0;exitY=0.5;exitDx=0;exitDy=0;" edge="1" parent="1" source="9f5_5LGFeZ3fVuOj17HK-9">
          <mxGeometry width="50" height="50" relative="1" as="geometry">
            <mxPoint x="229" y="293" as="sourcePoint" />
            <mxPoint x="160" y="310" as="targetPoint" />
          </mxGeometry>
        </mxCell>
        <mxCell id="jqtK98orMPLJmdBe8KaK-18" value="" style="endArrow=classic;html=1;rounded=0;fontFamily=Helvetica;fontSize=12;fontColor=default;entryX=0.818;entryY=0.767;entryDx=0;entryDy=0;entryPerimeter=0;" edge="1" parent="1" target="9f5_5LGFeZ3fVuOj17HK-7">
          <mxGeometry width="50" height="50" relative="1" as="geometry">
            <mxPoint x="220" y="310" as="sourcePoint" />
            <mxPoint x="170" y="200" as="targetPoint" />
          </mxGeometry>
        </mxCell>
      </root>
    </mxGraphModel>
  </diagram>
</mxfile>
